<svg width="427" height="256" viewBox="0 0 427 256" fill="none" xmlns="http://www.w3.org/2000/svg">
<g clip-path="url(#clip0_59_690)">
<g clip-path="url(#clip1_59_690)">
<rect width="426.667" height="256" fill="black"/>
<g filter="url(#filter0_f_59_690)">
<circle cx="437" cy="-1.52588e-05" r="202.667" fill="url(#paint0_radial_59_690)"/>
</g>
</g>
<path d="M133.477 42V24.3861H136.183V42H133.477ZM134.853 21.4505C134.326 21.4505 133.871 21.2709 133.488 20.9115C133.114 20.5522 132.927 20.1203 132.927 19.6157C132.927 19.1112 133.114 18.6792 133.488 18.3199C133.871 17.9606 134.326 17.781 134.853 17.781C135.381 17.781 135.832 17.9606 136.206 18.3199C136.588 18.6792 136.78 19.1112 136.78 19.6157C136.78 20.1203 136.588 20.5522 136.206 20.9115C135.832 21.2709 135.381 21.4505 134.853 21.4505ZM141.457 42V18.5149H149.392C151.234 18.5149 152.74 18.8474 153.91 19.5125C155.087 20.17 155.959 21.0606 156.525 22.1844C157.09 23.3082 157.373 24.562 157.373 25.9457C157.373 27.3294 157.09 28.587 156.525 29.7185C155.967 30.8499 155.103 31.752 153.933 32.4248C152.763 33.0899 151.265 33.4224 149.438 33.4224H143.75V30.8996H149.346C150.607 30.8996 151.62 30.6817 152.385 30.246C153.149 29.8102 153.704 29.2215 154.048 28.48C154.399 27.7308 154.575 26.886 154.575 25.9457C154.575 25.0054 154.399 24.1644 154.048 23.4229C153.704 22.6813 153.146 22.1003 152.373 21.6799C151.601 21.2517 150.577 21.0377 149.3 21.0377H144.3V42H141.457ZM164.243 31.4042V42H161.537V18.5149H164.243V27.1383H164.473C164.885 26.2286 165.505 25.5061 166.33 24.971C167.164 24.4282 168.272 24.1568 169.656 24.1568C170.856 24.1568 171.907 24.3976 172.809 24.8792C173.711 25.3532 174.411 26.0833 174.908 27.0695C175.412 28.0481 175.665 29.2942 175.665 30.8079V42H172.958V30.9913C172.958 29.5923 172.595 28.5106 171.869 27.7461C171.15 26.9739 170.153 26.5879 168.876 26.5879C167.989 26.5879 167.194 26.7752 166.491 27.1498C165.795 27.5244 165.245 28.071 164.84 28.7896C164.442 29.5082 164.243 30.3798 164.243 31.4042Z" fill="url(#paint1_linear_59_690)"/>
<rect x="182.013" y="19.4509" width="66.2946" height="22.0982" rx="11.0491" stroke="url(#paint2_linear_59_690)" stroke-width="2.00893"/>
<path d="M256.505 31.4042V42H253.798V24.3861H256.413V27.1383H256.642C257.055 26.2439 257.682 25.5252 258.523 24.9825C259.364 24.432 260.449 24.1568 261.78 24.1568C262.972 24.1568 264.016 24.4014 264.91 24.8907C265.805 25.3723 266.5 26.1063 266.997 27.0924C267.494 28.071 267.743 29.3095 267.743 30.8079V42H265.036V30.9913C265.036 29.6076 264.677 28.5297 263.958 27.7575C263.24 26.9778 262.254 26.5879 261 26.5879C260.136 26.5879 259.364 26.7752 258.683 27.1498C258.011 27.5244 257.479 28.071 257.089 28.7896C256.7 29.5082 256.505 30.3798 256.505 31.4042ZM280.022 42.367C278.325 42.367 276.861 41.9924 275.63 41.2432C274.407 40.4863 273.463 39.4313 272.798 38.0782C272.141 36.7174 271.812 35.1349 271.812 33.3307C271.812 31.5265 272.141 29.9363 272.798 28.5603C273.463 27.1765 274.388 26.0986 275.573 25.3265C276.766 24.5467 278.157 24.1568 279.747 24.1568C280.665 24.1568 281.571 24.3097 282.465 24.6155C283.359 24.9213 284.174 25.4182 284.908 26.1063C285.641 26.7866 286.226 27.6887 286.662 28.8125C287.098 29.9363 287.316 31.3201 287.316 32.9637V34.1105H273.738V31.7711H284.564C284.564 30.7773 284.365 29.8905 283.967 29.1107C283.577 28.3309 283.019 27.7155 282.293 27.2645C281.574 26.8134 280.726 26.5879 279.747 26.5879C278.669 26.5879 277.737 26.8555 276.949 27.3906C276.169 27.9181 275.569 28.6061 275.149 29.4547C274.728 30.3033 274.518 31.213 274.518 32.1839V33.7435C274.518 35.0737 274.747 36.2013 275.206 37.1264C275.673 38.0438 276.319 38.7433 277.144 39.2249C277.97 39.6989 278.929 39.9359 280.022 39.9359C280.733 39.9359 281.376 39.8365 281.949 39.6377C282.53 39.4313 283.031 39.1255 283.451 38.7203C283.872 38.3075 284.197 37.7953 284.426 37.1837L287.04 37.9176C286.765 38.8044 286.303 39.5842 285.653 40.257C285.003 40.9221 284.2 41.4419 283.245 41.8165C282.289 42.1835 281.215 42.367 280.022 42.367Z" fill="url(#paint3_linear_59_690)"/>
<path d="M148.685 69H143.756V54.4545H148.784C150.229 54.4545 151.469 54.7457 152.506 55.3281C153.548 55.9058 154.348 56.7367 154.907 57.821C155.465 58.9053 155.745 60.2027 155.745 61.7131C155.745 63.2282 155.463 64.5303 154.9 65.6193C154.341 66.7083 153.534 67.544 152.478 68.1264C151.427 68.7088 150.162 69 148.685 69ZM146.391 66.7202H148.557C149.57 66.7202 150.416 66.5355 151.093 66.1662C151.77 65.7921 152.279 65.2358 152.62 64.4972C152.961 63.7538 153.131 62.8258 153.131 61.7131C153.131 60.6004 152.961 59.6771 152.62 58.9432C152.279 58.2045 151.775 57.6529 151.107 57.2884C150.444 56.919 149.62 56.7344 148.635 56.7344H146.391V66.7202ZM159.683 73.0909C159.332 73.0909 159.008 73.0625 158.71 73.0057C158.416 72.9536 158.182 72.892 158.006 72.821L158.603 70.8182C158.977 70.9271 159.311 70.9792 159.605 70.9744C159.898 70.9697 160.156 70.8774 160.379 70.6974C160.606 70.5223 160.798 70.2287 160.954 69.8168L161.174 69.2273L157.218 58.0909H159.945L162.46 66.3295H162.573L165.095 58.0909H167.829L163.461 70.321C163.257 70.8987 162.988 71.3935 162.651 71.8054C162.315 72.2221 161.903 72.5393 161.416 72.7571C160.933 72.9796 160.355 73.0909 159.683 73.0909ZM172.129 62.608V69H169.558V58.0909H172.015V59.9446H172.143C172.394 59.3338 172.794 58.8485 173.344 58.4886C173.898 58.1288 174.582 57.9489 175.396 57.9489C176.149 57.9489 176.805 58.1098 177.363 58.4318C177.927 58.7538 178.363 59.2202 178.67 59.831C178.983 60.4418 179.137 61.1828 179.132 62.054V69H176.561V62.4517C176.561 61.7225 176.372 61.152 175.993 60.7401C175.619 60.3281 175.1 60.1222 174.437 60.1222C173.988 60.1222 173.587 60.2216 173.237 60.4205C172.891 60.6146 172.619 60.8963 172.42 61.2656C172.226 61.6349 172.129 62.0824 172.129 62.608ZM184.835 69.2202C184.143 69.2202 183.521 69.0971 182.967 68.8509C182.418 68.5999 181.982 68.2306 181.66 67.7429C181.343 67.2552 181.184 66.6539 181.184 65.9389C181.184 65.3234 181.298 64.8144 181.525 64.4119C181.752 64.0095 182.063 63.6875 182.456 63.446C182.848 63.2045 183.291 63.0223 183.784 62.8991C184.281 62.7713 184.795 62.679 185.325 62.6222C185.964 62.5559 186.482 62.4967 186.88 62.4446C187.278 62.3878 187.567 62.3026 187.747 62.1889C187.931 62.0705 188.024 61.8883 188.024 61.642V61.5994C188.024 61.0644 187.865 60.6501 187.548 60.3565C187.231 60.063 186.774 59.9162 186.177 59.9162C185.547 59.9162 185.048 60.0535 184.679 60.3281C184.314 60.6027 184.068 60.9271 183.94 61.3011L181.539 60.9602C181.729 60.2973 182.041 59.7434 182.477 59.2983C182.912 58.8485 183.445 58.5123 184.075 58.2898C184.705 58.0625 185.401 57.9489 186.163 57.9489C186.688 57.9489 187.212 58.0104 187.732 58.1335C188.253 58.2566 188.729 58.4602 189.16 58.7443C189.591 59.0237 189.937 59.4048 190.197 59.8878C190.462 60.3707 190.595 60.9744 190.595 61.6989V69H188.123V67.5014H188.038C187.882 67.8045 187.661 68.0885 187.377 68.3537C187.098 68.6141 186.745 68.8248 186.319 68.9858C185.898 69.142 185.403 69.2202 184.835 69.2202ZM185.502 67.331C186.018 67.331 186.466 67.2292 186.845 67.0256C187.223 66.8172 187.515 66.5426 187.718 66.2017C187.927 65.8608 188.031 65.4891 188.031 65.0866V63.8011C187.95 63.8674 187.813 63.929 187.619 63.9858C187.429 64.0426 187.216 64.0923 186.98 64.1349C186.743 64.1776 186.509 64.2154 186.277 64.2486C186.045 64.2817 185.843 64.3101 185.673 64.3338C185.289 64.3859 184.946 64.4711 184.643 64.5895C184.34 64.7079 184.101 64.8736 183.926 65.0866C183.75 65.295 183.663 65.5649 183.663 65.8963C183.663 66.3698 183.836 66.7273 184.181 66.9688C184.527 67.2102 184.967 67.331 185.502 67.331ZM193.13 69V58.0909H195.587V59.9446H195.715C195.942 59.3196 196.319 58.8319 196.844 58.4815C197.37 58.1264 197.997 57.9489 198.727 57.9489C199.465 57.9489 200.088 58.1288 200.594 58.4886C201.106 58.8437 201.466 59.3291 201.674 59.9446H201.788C202.029 59.3385 202.436 58.8556 203.009 58.4957C203.587 58.1312 204.271 57.9489 205.062 57.9489C206.066 57.9489 206.885 58.2661 207.519 58.9006C208.154 59.535 208.471 60.4607 208.471 61.6776V69H205.893V62.0753C205.893 61.3982 205.713 60.9034 205.353 60.5909C204.993 60.2737 204.553 60.1151 204.032 60.1151C203.412 60.1151 202.926 60.3092 202.576 60.6974C202.23 61.081 202.057 61.5805 202.057 62.196V69H199.536V61.9688C199.536 61.4053 199.366 60.9555 199.025 60.6193C198.689 60.2831 198.248 60.1151 197.704 60.1151C197.334 60.1151 196.998 60.2098 196.695 60.3991C196.392 60.5838 196.151 60.8466 195.971 61.1875C195.791 61.5237 195.701 61.9167 195.701 62.3665V69H193.13ZM211.029 69V58.0909H213.6V69H211.029ZM212.322 56.5426C211.915 56.5426 211.564 56.4077 211.271 56.1378C210.977 55.8632 210.83 55.5341 210.83 55.1506C210.83 54.7623 210.977 54.4332 211.271 54.1634C211.564 53.8887 211.915 53.7514 212.322 53.7514C212.734 53.7514 213.084 53.8887 213.373 54.1634C213.666 54.4332 213.813 54.7623 213.813 55.1506C213.813 55.5341 213.666 55.8632 213.373 56.1378C213.084 56.4077 212.734 56.5426 212.322 56.5426ZM220.953 69.2131C219.864 69.2131 218.928 68.974 218.147 68.4957C217.371 68.0175 216.772 67.357 216.35 66.5142C215.934 65.6667 215.725 64.6913 215.725 63.5881C215.725 62.4801 215.938 61.5024 216.364 60.6548C216.791 59.8026 217.392 59.1397 218.168 58.6662C218.95 58.188 219.873 57.9489 220.938 57.9489C221.824 57.9489 222.607 58.1122 223.289 58.4389C223.976 58.7609 224.523 59.2178 224.93 59.8097C225.337 60.3968 225.569 61.0833 225.626 61.8693H223.168C223.069 61.3437 222.832 60.9058 222.458 60.5554C222.089 60.2003 221.594 60.0227 220.974 60.0227C220.448 60.0227 219.987 60.1648 219.589 60.4489C219.191 60.7282 218.881 61.1307 218.658 61.6562C218.441 62.1818 218.332 62.8116 218.332 63.5455C218.332 64.2888 218.441 64.928 218.658 65.4631C218.876 65.9934 219.182 66.4029 219.575 66.6918C219.972 66.9759 220.439 67.1179 220.974 67.1179C221.353 67.1179 221.691 67.0469 221.989 66.9048C222.292 66.758 222.546 66.5473 222.749 66.2727C222.953 65.9981 223.093 65.6643 223.168 65.2713H225.626C225.564 66.0431 225.337 66.7273 224.944 67.3239C224.551 67.9157 224.016 68.3797 223.339 68.7159C222.662 69.0473 221.866 69.2131 220.953 69.2131ZM235.346 54.4545V69H232.712V54.4545H235.346ZM246.658 60.9744L244.315 61.2301C244.248 60.9934 244.132 60.7708 243.967 60.5625C243.806 60.3542 243.588 60.1861 243.313 60.0582C243.039 59.9304 242.702 59.8665 242.305 59.8665C241.77 59.8665 241.32 59.9825 240.955 60.2145C240.595 60.4465 240.418 60.7472 240.423 61.1165C240.418 61.4337 240.534 61.6918 240.771 61.8906C241.012 62.0895 241.41 62.2528 241.964 62.3807L243.825 62.7784C244.857 63.0009 245.624 63.3537 246.126 63.8366C246.632 64.3196 246.888 64.9517 246.893 65.733C246.888 66.4195 246.687 67.0256 246.289 67.5511C245.896 68.072 245.349 68.4792 244.648 68.7727C243.948 69.0663 243.143 69.2131 242.234 69.2131C240.898 69.2131 239.824 68.9337 239.009 68.375C238.195 67.8116 237.709 67.0279 237.553 66.0241L240.06 65.7827C240.174 66.2751 240.415 66.6468 240.785 66.8977C241.154 67.1487 241.635 67.2741 242.227 67.2741C242.837 67.2741 243.327 67.1487 243.697 66.8977C244.071 66.6468 244.258 66.3366 244.258 65.9673C244.258 65.6548 244.137 65.3968 243.896 65.1932C243.659 64.9896 243.29 64.8333 242.788 64.7244L240.927 64.3338C239.88 64.116 239.106 63.7491 238.604 63.233C238.102 62.7121 237.854 62.054 237.859 61.2585C237.854 60.5862 238.036 60.0038 238.406 59.5114C238.78 59.0142 239.298 58.6307 239.961 58.3608C240.629 58.0862 241.398 57.9489 242.269 57.9489C243.548 57.9489 244.554 58.2211 245.288 58.7656C246.026 59.3101 246.483 60.0464 246.658 60.9744ZM251.534 54.4545V69H248.963V54.4545H251.534ZM257.267 69.2202C256.576 69.2202 255.953 69.0971 255.399 68.8509C254.85 68.5999 254.414 68.2306 254.092 67.7429C253.775 67.2552 253.616 66.6539 253.616 65.9389C253.616 65.3234 253.73 64.8144 253.957 64.4119C254.184 64.0095 254.495 63.6875 254.888 63.446C255.281 63.2045 255.723 63.0223 256.216 62.8991C256.713 62.7713 257.227 62.679 257.757 62.6222C258.396 62.5559 258.915 62.4967 259.312 62.4446C259.71 62.3878 259.999 62.3026 260.179 62.1889C260.363 62.0705 260.456 61.8883 260.456 61.642V61.5994C260.456 61.0644 260.297 60.6501 259.98 60.3565C259.663 60.063 259.206 59.9162 258.609 59.9162C257.979 59.9162 257.48 60.0535 257.111 60.3281C256.746 60.6027 256.5 60.9271 256.372 61.3011L253.971 60.9602C254.161 60.2973 254.473 59.7434 254.909 59.2983C255.344 58.8485 255.877 58.5123 256.507 58.2898C257.137 58.0625 257.833 57.9489 258.595 57.9489C259.12 57.9489 259.644 58.0104 260.165 58.1335C260.685 58.2566 261.161 58.4602 261.592 58.7443C262.023 59.0237 262.369 59.4048 262.629 59.8878C262.894 60.3707 263.027 60.9744 263.027 61.6989V69H260.555V67.5014H260.47C260.314 67.8045 260.093 68.0885 259.809 68.3537C259.53 68.6141 259.177 68.8248 258.751 68.9858C258.33 69.142 257.835 69.2202 257.267 69.2202ZM257.934 67.331C258.451 67.331 258.898 67.2292 259.277 67.0256C259.656 66.8172 259.947 66.5426 260.15 66.2017C260.359 65.8608 260.463 65.4891 260.463 65.0866V63.8011C260.382 63.8674 260.245 63.929 260.051 63.9858C259.861 64.0426 259.648 64.0923 259.412 64.1349C259.175 64.1776 258.941 64.2154 258.709 64.2486C258.477 64.2817 258.275 64.3101 258.105 64.3338C257.721 64.3859 257.378 64.4711 257.075 64.5895C256.772 64.7079 256.533 64.8736 256.358 65.0866C256.183 65.295 256.095 65.5649 256.095 65.8963C256.095 66.3698 256.268 66.7273 256.613 66.9688C256.959 67.2102 257.399 67.331 257.934 67.331ZM268.133 62.608V69H265.562V58.0909H268.019V59.9446H268.147C268.398 59.3338 268.798 58.8485 269.347 58.4886C269.901 58.1288 270.586 57.9489 271.4 57.9489C272.153 57.9489 272.809 58.1098 273.367 58.4318C273.931 58.7538 274.366 59.2202 274.674 59.831C274.987 60.4418 275.141 61.1828 275.136 62.054V69H272.565V62.4517C272.565 61.7225 272.375 61.152 271.997 60.7401C271.623 60.3281 271.104 60.1222 270.441 60.1222C269.991 60.1222 269.591 60.2216 269.241 60.4205C268.895 60.6146 268.623 60.8963 268.424 61.2656C268.23 61.6349 268.133 62.0824 268.133 62.608ZM281.748 69.1918C280.891 69.1918 280.124 68.9716 279.447 68.5312C278.77 68.0909 278.235 67.4517 277.842 66.6136C277.449 65.7756 277.252 64.7576 277.252 63.5597C277.252 62.3475 277.451 61.3248 277.849 60.4915C278.251 59.6534 278.793 59.0213 279.475 58.5952C280.157 58.1643 280.917 57.9489 281.755 57.9489C282.394 57.9489 282.92 58.0578 283.332 58.2756C283.744 58.4886 284.07 58.7467 284.312 59.0497C284.553 59.348 284.74 59.6297 284.873 59.8949H284.979V54.4545H287.557V69H285.029V67.2812H284.873C284.74 67.5464 284.548 67.8281 284.297 68.1264C284.047 68.42 283.715 68.6709 283.303 68.8793C282.891 69.0876 282.373 69.1918 281.748 69.1918ZM282.465 67.0824C283.01 67.0824 283.474 66.9356 283.857 66.642C284.241 66.3437 284.532 65.9295 284.731 65.3991C284.93 64.8688 285.029 64.2509 285.029 63.5455C285.029 62.84 284.93 62.2268 284.731 61.706C284.537 61.1851 284.248 60.7803 283.864 60.4915C283.485 60.2027 283.019 60.0582 282.465 60.0582C281.892 60.0582 281.414 60.2074 281.03 60.5057C280.647 60.804 280.358 61.2159 280.164 61.7415C279.97 62.267 279.873 62.8684 279.873 63.5455C279.873 64.2273 279.97 64.8357 280.164 65.3707C280.363 65.901 280.654 66.3201 281.038 66.6278C281.426 66.9309 281.902 67.0824 282.465 67.0824Z" fill="url(#paint4_linear_59_690)"/>
</g>
<defs>
<filter id="filter0_f_59_690" x="-85.6667" y="-522.667" width="1045.33" height="1045.33" filterUnits="userSpaceOnUse" color-interpolation-filters="sRGB">
<feFlood flood-opacity="0" result="BackgroundImageFix"/>
<feBlend mode="normal" in="SourceGraphic" in2="BackgroundImageFix" result="shape"/>
<feGaussianBlur stdDeviation="160" result="effect1_foregroundBlur_59_690"/>
</filter>
<radialGradient id="paint0_radial_59_690" cx="0" cy="0" r="1" gradientUnits="userSpaceOnUse" gradientTransform="translate(308.645 91.2) rotate(10.5208) scale(336.682)">
<stop offset="0.0625" stop-color="#E82525" stop-opacity="0.5"/>
<stop offset="0.84375" stop-color="#7619EB" stop-opacity="0.5"/>
<stop offset="1" stop-color="#64ECFF" stop-opacity="0.5"/>
</radialGradient>
<linearGradient id="paint1_linear_59_690" x1="155" y1="8" x2="272.5" y2="49" gradientUnits="userSpaceOnUse">
<stop stop-color="#B7B7B7"/>
<stop offset="1" stop-color="white" stop-opacity="0"/>
</linearGradient>
<linearGradient id="paint2_linear_59_690" x1="215.161" y1="18.4464" x2="277" y2="39.5" gradientUnits="userSpaceOnUse">
<stop stop-color="#B7B7B7"/>
<stop offset="1" stop-color="white" stop-opacity="0"/>
</linearGradient>
<linearGradient id="paint3_linear_59_690" x1="270.321" y1="8" x2="270.321" y2="53" gradientUnits="userSpaceOnUse">
<stop stop-color="#B7B7B7"/>
<stop offset="1" stop-color="white" stop-opacity="0"/>
</linearGradient>
<linearGradient id="paint4_linear_59_690" x1="216.315" y1="77.5" x2="216.315" y2="41.5" gradientUnits="userSpaceOnUse">
<stop stop-color="#E240FD"/>
<stop offset="1" stop-color="#D9D9D9"/>
</linearGradient>
<clipPath id="clip0_59_690">
<rect width="426.667" height="256" fill="white"/>
</clipPath>
<clipPath id="clip1_59_690">
<rect width="426.667" height="256" fill="white"/>
</clipPath>
</defs>
</svg>
